<svg width="83" height="80" viewBox="0 0 83 80" fill="none" xmlns="http://www.w3.org/2000/svg">
<path d="M13.4047 53.2685C12.4129 51.6035 13.0979 49.4461 14.8684 48.658L30.55 41.6783C31.4979 41.2564 32.5906 41.3148 33.4881 41.8353L42.4489 47.032C43.3416 47.5498 43.9337 48.4624 44.0427 49.4887L45.8723 66.7199C46.0763 68.6413 44.5613 70.3119 42.6291 70.296L35.3803 70.2364C33.4295 70.2203 31.9367 68.494 32.2024 66.5613L33.6519 56.016C33.7708 55.151 33.3537 54.3002 32.597 53.8644C31.8393 53.4281 30.8927 53.4952 30.2041 54.0339L21.9487 60.4928C20.414 61.6935 18.1738 61.2747 17.1766 59.6006L13.4047 53.2685Z" fill="white"/>
<path fill-rule="evenodd" clip-rule="evenodd" d="M47.4586 46.5605L61.3163 56.7539C62.1009 57.3311 63.2139 57.0888 63.6877 56.2378L67.2788 49.7867C67.7517 48.9372 67.3736 47.8654 66.4722 47.5007L56.6537 43.5287C55.2317 42.9535 54.3011 41.573 54.3011 40.0391C54.3011 38.5149 55.2202 37.1412 56.629 36.5596L66.4819 32.4923C67.3788 32.1221 67.7501 31.0509 67.2747 30.205L63.6965 23.8373C63.2206 22.9904 62.1107 22.7512 61.3282 23.3268L47.4586 33.5287C47.0442 33.8335 46.7996 34.3172 46.7996 34.8315V45.2576C46.7996 45.772 47.0442 46.2557 47.4586 46.5605ZM46.5002 47.8633C45.6716 47.2537 45.1823 46.2863 45.1823 45.2576V34.8315C45.1823 33.8028 45.6716 32.8354 46.5003 32.2259L60.3699 22.0239C61.9349 20.8727 64.1546 21.3512 65.1064 23.045L68.6847 29.4127C69.6354 31.1045 68.8928 33.2468 67.099 33.9873L57.2462 38.0545C56.4426 38.3862 55.9184 39.1698 55.9184 40.0391C55.9184 40.914 56.4492 41.7013 57.2602 42.0294L67.0788 46.0015C68.8814 46.7307 69.6378 48.8743 68.692 50.5733L65.1008 57.0244C64.1533 58.7266 61.9272 59.2111 60.3579 58.0568L46.5002 47.8633Z" fill="#2DEBFC"/>
<path d="M42.4488 32.9381C43.3415 32.4203 43.9336 31.5077 44.0426 30.4814L45.869 13.2802C46.0742 11.3481 44.5417 9.67235 42.599 9.70443L35.3492 9.82415C33.4094 9.85619 31.9339 11.5768 32.1981 13.4989L33.6513 24.0708C33.7705 24.9381 33.3522 25.7911 32.5935 26.2278C31.8372 26.6631 30.8929 26.5983 30.2032 26.0639L21.8345 19.5797C20.2961 18.3877 18.0609 18.8143 17.0697 20.4891L13.3905 26.7054C12.4053 28.3701 13.0917 30.5216 14.8589 31.3081L30.55 38.2918C31.4978 38.7137 32.5905 38.6553 33.488 38.1348L42.4488 32.9381Z" fill="#2C85FC"/>
</svg>
