<svg width="287" height="80" viewBox="0 0 287 80" fill="none" xmlns="http://www.w3.org/2000/svg">
<path d="M13.4047 53.2685C12.4129 51.6035 13.0979 49.4461 14.8684 48.658L30.55 41.6783C31.4979 41.2564 32.5906 41.3148 33.4881 41.8353L42.4489 47.032C43.3416 47.5498 43.9337 48.4624 44.0427 49.4887L45.8723 66.7199C46.0763 68.6413 44.5613 70.3119 42.6291 70.296L35.3803 70.2364C33.4295 70.2203 31.9367 68.494 32.2024 66.5613L33.6519 56.016C33.7708 55.151 33.3537 54.3002 32.597 53.8644C31.8393 53.4281 30.8927 53.4952 30.2041 54.0339L21.9487 60.4928C20.414 61.6935 18.1738 61.2747 17.1766 59.6006L13.4047 53.2685Z" fill="white"/>
<path fill-rule="evenodd" clip-rule="evenodd" d="M47.4584 46.5605L61.3161 56.7539C62.1008 57.3311 63.2138 57.0888 63.6876 56.2378L67.2787 49.7867C67.7516 48.9372 67.3734 47.8654 66.4721 47.5007L56.6536 43.5287C55.2316 42.9535 54.3009 41.573 54.3009 40.0391C54.3009 38.5149 55.22 37.1412 56.6289 36.5596L66.4818 32.4923C67.3786 32.1221 67.7499 31.0509 67.2746 30.205L63.6963 23.8373C63.2204 22.9904 62.1106 22.7512 61.3281 23.3268L47.4585 33.5287C47.0441 33.8335 46.7995 34.3172 46.7995 34.8315V45.2576C46.7995 45.772 47.0441 46.2557 47.4584 46.5605ZM46.5001 47.8633C45.6714 47.2537 45.1821 46.2863 45.1821 45.2576V34.8315C45.1821 33.8028 45.6715 32.8354 46.5002 32.2259L60.3697 22.0239C61.9348 20.8727 64.1545 21.3512 65.1063 23.045L68.6846 29.4127C69.6352 31.1045 68.8926 33.2468 67.0989 33.9873L57.246 38.0545C56.4425 38.3862 55.9183 39.1698 55.9183 40.0391C55.9183 40.914 56.4491 41.7013 57.2601 42.0294L67.0787 46.0015C68.8813 46.7307 69.6377 48.8743 68.6918 50.5733L65.1007 57.0244C64.1532 58.7266 61.9271 59.2111 60.3578 58.0568L46.5001 47.8633Z" fill="#2DEBFC"/>
<path d="M42.4488 32.9381C43.3415 32.4203 43.9336 31.5077 44.0426 30.4814L45.869 13.2802C46.0742 11.3481 44.5417 9.67235 42.599 9.70443L35.3492 9.82415C33.4094 9.85619 31.9339 11.5768 32.1981 13.4989L33.6513 24.0708C33.7705 24.9381 33.3522 25.7911 32.5935 26.2278C31.8372 26.6631 30.8929 26.5983 30.2032 26.0639L21.8345 19.5797C20.2961 18.3877 18.0609 18.8143 17.0697 20.4891L13.3905 26.7054C12.4053 28.3701 13.0917 30.5216 14.8589 31.3081L30.55 38.2918C31.4978 38.7137 32.5905 38.6553 33.488 38.1348L42.4488 32.9381Z" fill="#2C85FC"/>
<path d="M119.027 37.2921V58.3439H126.86V31.5155H115.453V37.2921H119.027Z" fill="white"/>
<path d="M118.782 27.7459C119.5 28.4964 120.593 28.8717 122.062 28.8717C123.531 28.8717 124.608 28.4964 125.292 27.7459C126.011 26.9623 126.37 25.9832 126.37 24.8085C126.37 23.6008 126.011 22.6216 125.292 21.8711C124.608 21.0878 123.531 20.696 122.062 20.696C120.593 20.696 119.5 21.0878 118.782 21.8711C118.097 22.6216 117.754 23.6008 117.754 24.8085C117.754 25.9832 118.097 26.9623 118.782 27.7459Z" fill="white"/>
<path d="M179.93 58.2184C180.648 58.9689 181.741 59.3442 183.21 59.3442C184.679 59.3442 185.756 58.9689 186.44 58.2184C187.159 57.4348 187.518 56.4557 187.518 55.281C187.518 54.0733 187.159 53.0941 186.44 52.3436C185.756 51.5604 184.679 51.1686 183.21 51.1686C181.741 51.1686 180.648 51.5604 179.93 52.3436C179.245 53.0941 178.902 54.0733 178.902 55.281C178.902 56.4557 179.245 57.4348 179.93 58.2184Z" fill="white"/>
<path d="M91.7588 57.7558C93.9778 58.7675 96.703 59.2737 99.9336 59.2737C102.969 59.2737 105.58 58.8006 107.767 57.8537C109.954 56.9076 111.634 55.5854 112.809 53.8888C114.017 52.1583 114.621 50.1512 114.621 47.8666C114.621 45.6474 114.05 43.7707 112.908 42.2365C111.797 40.6701 110.248 39.4462 108.256 38.5652C106.265 37.6511 103.965 37.08 101.354 36.8517L98.6122 36.607C96.9804 36.476 95.8054 36.0358 95.0873 35.2849C94.3692 34.5344 94.0101 33.653 94.0101 32.6415C94.0101 31.8579 94.2066 31.1401 94.5972 30.4873C94.9894 29.8018 95.5765 29.2634 96.3601 28.8716C97.176 28.4801 98.1715 28.2843 99.3465 28.2843C100.586 28.2843 101.615 28.5125 102.431 28.9697C102.61 29.0663 102.781 29.1696 102.941 29.2792L102.98 29.3064C103.04 29.3478 103.099 29.3907 103.156 29.4341C103.652 29.8129 104.046 30.2619 104.34 30.781C104.764 31.4992 104.977 32.2986 104.977 33.1799H112.809C112.809 30.8299 112.271 28.79 111.194 27.0604C110.117 25.298 108.567 23.9436 106.544 22.9968C104.552 22.0176 102.153 21.5281 99.3465 21.5281C96.6698 21.5281 94.353 21.9853 92.3944 22.899C90.4367 23.7804 88.9026 25.0532 87.7931 26.7174C86.7152 28.3821 86.1766 30.3569 86.1766 32.6415C86.1766 35.8071 87.2384 38.3528 89.3595 40.2787C91.4806 42.2043 94.3207 43.3139 97.878 43.6076L100.571 43.8523C102.757 44.0482 104.34 44.4889 105.319 45.174C106.298 45.8268 106.788 46.7243 106.788 47.8666C106.788 48.3917 106.702 48.884 106.53 49.344C106.402 49.6854 106.227 50.0089 106.005 50.3145C105.482 51.0003 104.715 51.538 103.704 51.9302C102.692 52.3216 101.435 52.5173 99.9336 52.5173C98.2694 52.5173 96.9149 52.2893 95.8709 51.8324C94.8261 51.3423 94.0433 50.7059 93.5201 49.9231C93.0308 49.1395 92.7866 48.2912 92.7866 47.3771H85.0024C85.0024 49.6943 85.5734 51.7507 86.7152 53.5459C87.8578 55.308 89.539 56.7119 91.7588 57.7558Z" fill="white"/>
<path d="M197.788 57.7558C200.007 58.7675 202.733 59.2737 205.963 59.2737C208.999 59.2737 211.609 58.8006 213.797 57.8537C215.983 56.9076 217.664 55.5854 218.839 53.8888C220.047 52.1583 220.65 50.1512 220.65 47.8666C220.65 45.6474 220.08 43.7707 218.937 42.2365C217.827 40.6701 216.278 39.4462 214.286 38.5652C212.295 37.6511 209.994 37.08 207.383 36.8517L204.642 36.607C203.01 36.476 201.835 36.0358 201.117 35.2849C200.399 34.5344 200.04 33.653 200.04 32.6415C200.04 31.8579 200.236 31.1401 200.627 30.4873C201.019 29.8018 201.606 29.2634 202.39 28.8716C203.206 28.4801 204.201 28.2843 205.376 28.2843C206.616 28.2843 207.644 28.5125 208.46 28.9697C208.64 29.0663 208.81 29.1696 208.971 29.2792L209.009 29.3064C209.069 29.3478 209.128 29.3907 209.186 29.4341C209.681 29.8129 210.076 30.2619 210.37 30.781C210.793 31.4992 211.007 32.2986 211.007 33.1799H218.839C218.839 30.8299 218.3 28.79 217.224 27.0604C216.147 25.298 214.596 23.9436 212.573 22.9968C210.581 22.0176 208.183 21.5281 205.376 21.5281C202.699 21.5281 200.383 21.9853 198.424 22.899C196.466 23.7804 194.932 25.0532 193.823 26.7174C192.745 28.3821 192.206 30.3569 192.206 32.6415C192.206 35.8071 193.268 38.3528 195.389 40.2787C197.51 42.2043 200.35 43.3139 203.908 43.6076L206.6 43.8523C208.786 44.0482 210.37 44.4889 211.349 45.174C212.327 45.8268 212.817 46.7243 212.817 47.8666C212.817 48.3917 212.732 48.884 212.559 49.344C212.432 49.6854 212.257 50.0089 212.035 50.3145C211.511 51.0003 210.745 51.538 209.733 51.9302C208.721 52.3216 207.465 52.5173 205.963 52.5173C204.299 52.5173 202.944 52.2893 201.9 51.8324C200.856 51.3423 200.073 50.7059 199.55 49.9231C199.06 49.1395 198.816 48.2912 198.816 47.3771H191.032C191.032 49.6943 191.603 51.7507 192.745 53.5459C193.887 55.308 195.569 56.7119 197.788 57.7558Z" fill="white"/>
<path d="M144.337 58.6858C141.628 58.6858 139.441 58.3599 137.777 57.7065C136.112 57.0215 134.888 55.8959 134.105 54.3295C133.354 52.73 132.979 50.5757 132.979 47.8666V37.2431H128.916V31.5154H132.979V24.2699H140.273V31.5154H148.107V37.2431H140.273V48.1606C140.273 49.4335 140.6 50.4123 141.252 51.0973C141.937 51.7507 142.901 52.0766 144.141 52.0766H148.107V58.6858H144.337Z" fill="white"/>
<path d="M266.294 58.6858C263.585 58.6858 261.399 58.3599 259.734 57.7065C258.069 57.0215 256.846 55.8959 256.062 54.3295C255.312 52.73 254.937 50.5757 254.937 47.8666V37.2431H250.873V31.5154H254.937V24.2699H262.231V31.5154H270.064V37.2431H262.231V48.1606C262.231 49.4335 262.557 50.4123 263.21 51.0973C263.895 51.7507 264.858 52.0766 266.099 52.0766H270.064V58.6858H266.294Z" fill="white"/>
<path fill-rule="evenodd" clip-rule="evenodd" d="M157.537 58.0988C159.299 58.8824 161.323 59.2738 163.608 59.2738C165.859 59.2738 167.851 58.8824 169.581 58.0988C171.31 57.3152 172.747 56.2219 173.888 54.8189C175.031 53.415 175.799 51.8163 176.189 50.0211H168.993C168.667 50.837 168.047 51.522 167.133 52.0767C166.219 52.6323 165.043 52.9096 163.608 52.9096C162.718 52.9096 161.924 52.8045 161.223 52.5934C160.69 52.4333 160.212 52.2126 159.789 51.9303C158.81 51.2777 158.092 50.3632 157.635 49.1888C157.508 48.8542 157.4 48.5041 157.308 48.1395C157.215 47.7702 157.14 47.3858 157.084 46.9858H176.679V44.342C176.679 41.8942 176.157 39.6422 175.113 37.5862C174.068 35.497 172.55 33.8163 170.56 32.5435C168.601 31.238 166.186 30.5852 163.314 30.5852C161.127 30.5852 159.168 30.977 157.439 31.7603C155.743 32.5107 154.323 33.5388 153.18 34.8443C152.038 36.1498 151.157 37.635 150.536 39.2997C149.949 40.9312 149.655 42.6446 149.655 44.4398V45.4189C149.655 47.149 149.949 48.8459 150.536 50.5103C151.157 52.1422 152.038 53.6269 153.18 54.9652C154.355 56.2712 155.807 57.3152 157.537 58.0988ZM157.219 42.1449C157.241 42.0412 157.263 41.9391 157.288 41.8386C157.356 41.5618 157.435 41.2966 157.524 41.0431C157.574 40.8989 157.627 40.7581 157.684 40.6214C158.174 39.4136 158.892 38.4999 159.838 37.8798C160.192 37.6481 160.575 37.4596 160.987 37.3146C161.679 37.0714 162.456 36.9496 163.314 36.9496C164.653 36.9496 165.761 37.2598 166.643 37.8798C167.557 38.4672 168.242 39.332 168.699 40.4743C168.736 40.5665 168.771 40.6604 168.805 40.7554C168.859 40.9067 168.91 41.0621 168.956 41.2213C169.025 41.4582 169.086 41.7033 169.139 41.9569C169.178 42.1437 169.211 42.3348 169.241 42.5308H157.143C157.166 42.3998 157.191 42.2713 157.219 42.1449Z" fill="white"/>
<path fill-rule="evenodd" clip-rule="evenodd" d="M230.452 58.0988C232.214 58.8824 234.238 59.2738 236.522 59.2738C238.774 59.2738 240.766 58.8824 242.495 58.0988C244.225 57.3152 245.661 56.2219 246.803 54.8189C247.946 53.415 248.713 51.8163 249.104 50.0211H241.907C241.581 50.837 240.961 51.522 240.047 52.0767C239.134 52.6323 237.958 52.9096 236.522 52.9096C235.633 52.9096 234.838 52.8045 234.138 52.5934C233.605 52.4333 233.127 52.2126 232.704 51.9303C231.725 51.2777 231.007 50.3632 230.55 49.1888C230.423 48.8542 230.314 48.5041 230.223 48.1395C230.13 47.7702 230.055 47.3858 229.998 46.9858H249.594V44.342C249.594 41.8942 249.071 39.6422 248.027 37.5862C246.983 35.497 245.465 33.8163 243.475 32.5435C241.516 31.238 239.101 30.5852 236.228 30.5852C234.042 30.5852 232.083 30.977 230.353 31.7603C228.657 32.5107 227.237 33.5388 226.095 34.8443C224.953 36.1498 224.072 37.635 223.45 39.2997C222.863 40.9312 222.57 42.6446 222.57 44.4398V45.4189C222.57 47.149 222.863 48.8459 223.45 50.5103C224.072 52.1422 224.953 53.6269 226.095 54.9652C227.27 56.2712 228.721 57.3152 230.452 58.0988ZM230.133 42.1449C230.155 42.0412 230.178 41.9391 230.203 41.8386C230.271 41.5618 230.349 41.2966 230.438 41.0431C230.488 40.8989 230.542 40.7581 230.599 40.6214C231.088 39.4136 231.806 38.4999 232.753 37.8798C233.107 37.6481 233.49 37.4596 233.902 37.3146C234.594 37.0714 235.37 36.9496 236.228 36.9496C237.567 36.9496 238.676 37.2598 239.557 37.8798C240.471 38.4672 241.157 39.332 241.614 40.4743C241.651 40.5665 241.686 40.6604 241.72 40.7554C241.774 40.9067 241.824 41.0621 241.871 41.2213C241.94 41.4582 242 41.7033 242.054 41.9569C242.093 42.1437 242.126 42.3348 242.156 42.5308H230.058C230.081 42.3998 230.106 42.2713 230.133 42.1449Z" fill="white"/>
</svg>
